<svg width="152" height="233" viewBox="0 0 152 233" fill="none" xmlns="http://www.w3.org/2000/svg">
<path d="M0.596191 175.436C7.27658 175.436 13.5858 175.776 20.2662 175.436C46.6166 173.396 72.967 171.355 98.9463 165.914C110.823 163.193 123.07 160.133 134.946 157.072C139.4 156.052 143.111 153.671 147.194 151.631C149.791 150.271 151.276 150.951 151.276 153.671C151.276 169.315 151.276 184.618 151.276 200.261C151.276 204.002 149.049 206.723 145.338 208.083C136.802 211.144 127.895 214.204 118.987 216.245C109.338 218.625 99.3175 220.666 89.2969 222.366C72.5959 225.087 55.8949 227.467 38.8228 229.167C26.2043 230.528 13.5858 233.588 0.967325 232.228C0.596193 213.184 0.596191 194.48 0.596191 175.436Z" fill="white"/>
<path d="M0.968148 25.4108C8.03529 25.4108 15.1024 25.7551 21.7976 25.0664C42.6271 23.0001 63.4566 20.9339 83.9141 17.8344C98.4204 15.7682 112.555 12.3243 127.061 8.88052C133.756 7.15862 139.707 4.05917 146.031 1.6485C147.518 0.959737 149.006 0.959758 150.494 0.270996C150.866 1.64852 151.238 3.02598 151.238 4.4035C151.238 18.1787 150.866 31.954 151.238 45.7292C151.61 55.3719 149.378 57.0939 138.963 60.5377C112.183 69.4916 83.9141 73.9685 55.6455 77.0679C38.9076 78.7898 22.1696 80.1673 5.43161 81.8892C3.94379 81.8892 2.08401 81.8893 0.596191 81.5449C0.968146 63.2927 0.968148 44.3517 0.968148 25.4108Z" fill="white"/>
<path d="M0.596191 101.372C22.4781 99.9929 43.989 98.9585 65.8709 96.5449C83.3022 94.4761 100.363 90.3386 117.423 86.8906C128.179 84.8219 138.192 81.7187 147.464 76.2019C150.06 74.8227 151.173 75.8571 151.173 79.3051C151.173 90.6833 151.173 102.062 151.173 113.095C151.173 116.543 150.802 119.991 151.173 123.439C151.915 129.301 148.577 132.749 143.385 134.472C134.113 137.576 124.841 140.679 115.569 142.748C102.959 145.506 89.9781 148.264 76.9973 149.988C52.8901 153.436 28.4121 156.539 3.9341 157.229C2.82146 157.229 1.70883 156.884 0.967072 156.884C0.596193 138.61 0.596191 119.991 0.596191 101.372Z" fill="white"/>
</svg>
